<?xml version="1.0" standalone="no"?><!DOCTYPE svg PUBLIC "-//W3C//DTD SVG 1.1//EN" "http://www.w3.org/Graphics/SVG/1.1/DTD/svg11.dtd"><svg t="1532507897122" class="icon" style="" viewBox="0 0 1024 1024" version="1.1" xmlns="http://www.w3.org/2000/svg" p-id="1754" xmlns:xlink="http://www.w3.org/1999/xlink" width="200" height="200"><defs><style type="text/css"></style></defs><path d="M959.886285 430.236811c0-45.212738-36.651758-81.864496-81.864496-81.864495a81.731466 81.731466 0 0 0-25.725918 4.148483L593.559039 166.285211c0.186242-2.252297 0.304945-4.523013 0.304945-6.823406 0-45.212738-36.651758-81.863473-81.863472-81.863473-45.213761 0-81.865519 36.650735-81.86552 81.863473 0 1.741667 0.072655 3.464915 0.180102 5.178953L176.008154 354.082364a81.602529 81.602529 0 0 0-30.03199-5.711072c-45.213761 0-81.864496 36.652781-81.864496 81.864496 0 37.934984 25.805736 69.831438 60.818158 79.119989l96.627734 291.548122c-18.525935 15.007809-30.378891 37.930891-30.378891 63.632249 0 45.212738 36.650735 81.864496 81.864496 81.864496 29.007661 0 54.471612-15.10093 69.012793-37.856189l333.273433-2.728134c14.205537 24.270776 40.532135 40.584324 70.684875 40.584323 45.212738 0 81.864496-36.651758 81.864496-81.864496 0-22.056342-8.738012-42.059931-22.921035-56.779167l93.446275-298.215986c35.352159-9.05933 61.482283-41.129746 61.482283-79.304184z m-782.25005 75.511811c29.489638-12.379958 50.204425-41.524742 50.204425-75.511811 0-15.4509-4.285606-29.898961-11.725042-42.2298l234.354515-174.579107c15.003715 17.092283 36.998659 27.897374 61.530379 27.897373 24.096814 0 45.75816-10.41521 60.738339-26.985607l237.07037 170.639378c-8.619308 12.96529-13.651928 28.52159-13.651928 45.25674 0 33.856086 20.554128 62.908772 49.862641 75.369572l-87.137592 278.081412a82.550111 82.550111 0 0 0-12.866029-1.014096c-41.893132 0-76.414367 31.475875-81.259722 72.063269l-310.185598 2.538823c-3.677762-41.807175-38.762839-74.602092-81.525782-74.602092-1.206478 0-2.402723 0.038886-3.596921 0.091074l-91.812055-277.015128z" p-id="1755"></path></svg>