<?xml version="1.0" standalone="no"?><!DOCTYPE svg PUBLIC "-//W3C//DTD SVG 1.1//EN" "http://www.w3.org/Graphics/SVG/1.1/DTD/svg11.dtd"><svg t="1532440591899" class="icon" style="" viewBox="0 0 1024 1024" version="1.1" xmlns="http://www.w3.org/2000/svg" p-id="2146" xmlns:xlink="http://www.w3.org/1999/xlink" width="200" height="200"><defs><style type="text/css"></style></defs><path d="M917.7 924.4H444.8c-13.8 0-25-11.2-25-25s11.2-25 25-25h472.9c13.8 0 25 11.2 25 25s-11.2 25-25 25z" fill="#999999" p-id="2147"></path><path d="M444.1 898.7L123.8 578.4l449.5-449.5 321 321.1-448.8 448.7c-0.4 0.4-1 0.4-1.4 0z" fill="#FFFFFF" p-id="2148"></path><path d="M444.8 924c-6.9 0-13.5-2.7-18.4-7.6l-338-338L573.2 93.5 929.7 450 463.2 916.4c-4.9 4.9-11.4 7.6-18.4 7.6zM159.1 578.4l285 285c0.4 0.4 1 0.4 1.4 0L859 450 573.2 164.2 159.1 578.4z" fill="#666666" p-id="2149"></path><path d="M241.833 456.37l35.355-35.355 320.528 320.528-35.355 35.355z" fill="#666666" p-id="2150"></path></svg>