<?xml version="1.0" standalone="no"?><!DOCTYPE svg PUBLIC "-//W3C//DTD SVG 1.1//EN" "http://www.w3.org/Graphics/SVG/1.1/DTD/svg11.dtd"><svg t="1532598357433" class="icon" style="" viewBox="0 0 1024 1024" version="1.1" xmlns="http://www.w3.org/2000/svg" p-id="948" data-spm-anchor-id="a313x.7781069.0.i0" xmlns:xlink="http://www.w3.org/1999/xlink" width="200" height="200"><defs><style type="text/css"></style></defs><path d="M937.12896 893.51168c-2.78528 55.19872-70.66112 43.33056-108.40064 43.33056H181.12c-35.74784 0-83.62496 4.33664-83.62496-46.976v-128.70144-476.09856-138.11712c0-49.13664 40.20736-49.75616 76.53376-49.75616H819.37408c34.36032 0 92.06784-10.94144 112.93184 23.3984 6.81472 11.21792 4.82304 28.07808 4.82304 40.83712V893.51168c0 33.01376 51.2 33.01376 51.2 0V159.63648c0-15.89248 0.0256-30.70464-4.01408-46.40768-10.53696-40.97536-52.06528-67.23072-92.73344-67.23072H149.51936c-61.05088 0-103.2192 42.16832-103.2192 103.2192v742.07744c0 43.8528 26.88512 77.97248 67.23072 92.73344 14.34624 5.25312 31.24736 4.01408 46.40768 4.01408H893.7984c53.30944 0 91.93984-43.24864 94.53056-94.53056 1.664-33.01888-49.54112-32.85504-51.2 0z" p-id="949" fill="#707070"></path><path d="M230.59456 542.61248h573.43488c33.01376 0 33.01376-51.2 0-51.2H230.59456c-33.01888 0-33.01888 51.2 0 51.2z" p-id="950" fill="#707070"></path></svg>