<?xml version="1.0" standalone="no"?><!DOCTYPE svg PUBLIC "-//W3C//DTD SVG 1.1//EN" "http://www.w3.org/Graphics/SVG/1.1/DTD/svg11.dtd"><svg t="1532167339463" class="icon" style="" viewBox="0 0 1024 1024" version="1.1" xmlns="http://www.w3.org/2000/svg" p-id="1462" xmlns:xlink="http://www.w3.org/1999/xlink" width="200" height="200"><defs><style type="text/css"></style></defs><path d="M507.426133 156.4672c-4.2496-0.119467-8.413867 0.119467-12.6464 0.136533V56.661333c0-27.392-30.651733-43.6224-53.316266-28.245333L82.756267 272.0256a34.133333 34.133333 0 0 0 0 56.4736l358.741333 243.592533c22.664533 15.394133 53.316267-0.836267 53.316267-28.245333v-101.0688c172.834133-2.0992 316.5696 118.545067 323.515733 274.551467 5.3248 119.671467-71.424 225.757867-185.207467 274.756266-2.065067 0.887467-4.232533 2.628267-4.0448 6.178134 0.1536 2.901333 3.106133 3.754667 5.7344 2.9696C816.930133 947.677867 951.005867 790.306133 956.074667 600.917333c6.365867-238.660267-194.491733-437.640533-448.648534-444.450133z" fill="#2c2c2c" p-id="1463"></path></svg>